<mxfile host="app.diagrams.net" modified="2023-11-28T07:45:41.079Z" agent="Mozilla/5.0 (Macintosh; Intel Mac OS X 10_15_7) AppleWebKit/537.36 (KHTML, like Gecko) Chrome/119.0.0.0 Safari/537.36" etag="vYNLMA8Ba7muVgugkgcG" version="22.1.4" type="github">
  <diagram name="第 1 页" id="KiBO0PeVWjHBBkZiibji">
    <mxGraphModel dx="1834" dy="1190" grid="1" gridSize="10" guides="1" tooltips="1" connect="1" arrows="1" fold="1" page="0" pageScale="1" pageWidth="827" pageHeight="1169" math="0" shadow="0">
      <root>
        <mxCell id="0" />
        <mxCell id="1" parent="0" />
        <mxCell id="JpRInRD_3Gb2IMDQWBs1-68" style="edgeStyle=orthogonalEdgeStyle;rounded=0;orthogonalLoop=1;jettySize=auto;html=1;entryX=0;entryY=0.5;entryDx=0;entryDy=0;" edge="1" parent="1" source="JpRInRD_3Gb2IMDQWBs1-65" target="JpRInRD_3Gb2IMDQWBs1-67">
          <mxGeometry relative="1" as="geometry" />
        </mxCell>
        <mxCell id="JpRInRD_3Gb2IMDQWBs1-65" value="resumeDao" style="rounded=0;whiteSpace=wrap;html=1;dashed=1;dashPattern=8 8;strokeWidth=2;strokeColor=#66B2FF;align=left;verticalAlign=top;fontStyle=0;fontColor=#66B2FF;fontSize=20;" vertex="1" parent="1">
          <mxGeometry x="370" y="593.75" width="180" height="186.25" as="geometry" />
        </mxCell>
        <mxCell id="JpRInRD_3Gb2IMDQWBs1-8" style="edgeStyle=orthogonalEdgeStyle;rounded=0;orthogonalLoop=1;jettySize=auto;html=1;entryX=0;entryY=0.5;entryDx=0;entryDy=0;" edge="1" parent="1" source="JpRInRD_3Gb2IMDQWBs1-1" target="JpRInRD_3Gb2IMDQWBs1-6">
          <mxGeometry relative="1" as="geometry" />
        </mxCell>
        <mxCell id="JpRInRD_3Gb2IMDQWBs1-1" value="简历线索" style="rounded=0;whiteSpace=wrap;html=1;fontSize=19;fillColor=#fad9d5;strokeColor=#ae4132;" vertex="1" parent="1">
          <mxGeometry x="-40" y="-40" width="120" height="40" as="geometry" />
        </mxCell>
        <mxCell id="JpRInRD_3Gb2IMDQWBs1-7" value="" style="edgeStyle=orthogonalEdgeStyle;rounded=0;orthogonalLoop=1;jettySize=auto;html=1;" edge="1" parent="1" source="JpRInRD_3Gb2IMDQWBs1-4" target="JpRInRD_3Gb2IMDQWBs1-6">
          <mxGeometry relative="1" as="geometry" />
        </mxCell>
        <mxCell id="JpRInRD_3Gb2IMDQWBs1-4" value="魔方简历库" style="rounded=0;whiteSpace=wrap;html=1;fontSize=18;fillColor=#b1ddf0;strokeColor=#10739e;" vertex="1" parent="1">
          <mxGeometry x="-40" y="30" width="120" height="40" as="geometry" />
        </mxCell>
        <mxCell id="JpRInRD_3Gb2IMDQWBs1-9" style="edgeStyle=orthogonalEdgeStyle;rounded=0;orthogonalLoop=1;jettySize=auto;html=1;entryX=0;entryY=0.5;entryDx=0;entryDy=0;" edge="1" parent="1" source="JpRInRD_3Gb2IMDQWBs1-5" target="JpRInRD_3Gb2IMDQWBs1-6">
          <mxGeometry relative="1" as="geometry" />
        </mxCell>
        <mxCell id="JpRInRD_3Gb2IMDQWBs1-5" value="私有人才库" style="rounded=0;whiteSpace=wrap;html=1;fontSize=18;fillColor=#b0e3e6;strokeColor=#0e8088;" vertex="1" parent="1">
          <mxGeometry x="-40" y="100" width="120" height="40" as="geometry" />
        </mxCell>
        <mxCell id="JpRInRD_3Gb2IMDQWBs1-6" value="添加简历线索权限" style="rounded=0;whiteSpace=wrap;html=1;fontSize=18;fillColor=#bac8d3;strokeColor=#23445d;" vertex="1" parent="1">
          <mxGeometry x="160" y="30" width="170" height="40" as="geometry" />
        </mxCell>
        <mxCell id="JpRInRD_3Gb2IMDQWBs1-10" value="添加简历线索权限" style="text;html=1;strokeColor=none;fillColor=none;align=center;verticalAlign=middle;whiteSpace=wrap;rounded=0;fontSize=18;" vertex="1" parent="1">
          <mxGeometry x="-40" y="-120" width="150" height="30" as="geometry" />
        </mxCell>
        <mxCell id="JpRInRD_3Gb2IMDQWBs1-11" value="添加简历线索逻辑" style="text;html=1;strokeColor=none;fillColor=none;align=center;verticalAlign=middle;whiteSpace=wrap;rounded=0;fontSize=18;" vertex="1" parent="1">
          <mxGeometry x="-40" y="200" width="150" height="30" as="geometry" />
        </mxCell>
        <mxCell id="JpRInRD_3Gb2IMDQWBs1-20" style="edgeStyle=orthogonalEdgeStyle;rounded=0;orthogonalLoop=1;jettySize=auto;html=1;entryX=0;entryY=0.5;entryDx=0;entryDy=0;" edge="1" parent="1" source="JpRInRD_3Gb2IMDQWBs1-12" target="JpRInRD_3Gb2IMDQWBs1-16">
          <mxGeometry relative="1" as="geometry" />
        </mxCell>
        <mxCell id="JpRInRD_3Gb2IMDQWBs1-22" style="edgeStyle=orthogonalEdgeStyle;rounded=0;orthogonalLoop=1;jettySize=auto;html=1;entryX=0;entryY=0.5;entryDx=0;entryDy=0;" edge="1" parent="1" source="JpRInRD_3Gb2IMDQWBs1-12" target="JpRInRD_3Gb2IMDQWBs1-18">
          <mxGeometry relative="1" as="geometry" />
        </mxCell>
        <mxCell id="JpRInRD_3Gb2IMDQWBs1-12" value="" style="image;html=1;image=img/lib/clip_art/people/Suit_Man_128x128.png" vertex="1" parent="1">
          <mxGeometry x="-40" y="310" width="80" height="80" as="geometry" />
        </mxCell>
        <mxCell id="JpRInRD_3Gb2IMDQWBs1-140" style="edgeStyle=orthogonalEdgeStyle;rounded=0;orthogonalLoop=1;jettySize=auto;html=1;entryX=0;entryY=0.5;entryDx=0;entryDy=0;" edge="1" parent="1" source="JpRInRD_3Gb2IMDQWBs1-16" target="JpRInRD_3Gb2IMDQWBs1-19">
          <mxGeometry relative="1" as="geometry" />
        </mxCell>
        <mxCell id="JpRInRD_3Gb2IMDQWBs1-16" value="魔方简历库" style="rounded=0;whiteSpace=wrap;html=1;fontSize=18;fillColor=#b1ddf0;strokeColor=#10739e;" vertex="1" parent="1">
          <mxGeometry x="160" y="270" width="120" height="40" as="geometry" />
        </mxCell>
        <mxCell id="JpRInRD_3Gb2IMDQWBs1-141" style="edgeStyle=orthogonalEdgeStyle;rounded=0;orthogonalLoop=1;jettySize=auto;html=1;entryX=0;entryY=0.5;entryDx=0;entryDy=0;" edge="1" parent="1" source="JpRInRD_3Gb2IMDQWBs1-18" target="JpRInRD_3Gb2IMDQWBs1-19">
          <mxGeometry relative="1" as="geometry" />
        </mxCell>
        <mxCell id="JpRInRD_3Gb2IMDQWBs1-18" value="私有人才库" style="rounded=0;whiteSpace=wrap;html=1;fontSize=18;fillColor=#fad7ac;strokeColor=#b46504;" vertex="1" parent="1">
          <mxGeometry x="160" y="400" width="120" height="40" as="geometry" />
        </mxCell>
        <mxCell id="JpRInRD_3Gb2IMDQWBs1-31" value="" style="edgeStyle=orthogonalEdgeStyle;rounded=0;orthogonalLoop=1;jettySize=auto;html=1;" edge="1" parent="1" source="JpRInRD_3Gb2IMDQWBs1-19" target="JpRInRD_3Gb2IMDQWBs1-30">
          <mxGeometry relative="1" as="geometry" />
        </mxCell>
        <mxCell id="JpRInRD_3Gb2IMDQWBs1-19" value="添加简历线索（复用Call-List）" style="rounded=0;whiteSpace=wrap;html=1;fontSize=18;fillColor=#b0e3e6;strokeColor=#0e8088;" vertex="1" parent="1">
          <mxGeometry x="370" y="325" width="160" height="50" as="geometry" />
        </mxCell>
        <mxCell id="JpRInRD_3Gb2IMDQWBs1-28" value="call_list_log" style="image;aspect=fixed;html=1;points=[];align=center;fontSize=18;image=img/lib/azure2/databases/Azure_Database_MySQL_Server.svg;" vertex="1" parent="1">
          <mxGeometry x="840" y="318" width="48" height="64" as="geometry" />
        </mxCell>
        <mxCell id="JpRInRD_3Gb2IMDQWBs1-41" style="edgeStyle=orthogonalEdgeStyle;rounded=0;orthogonalLoop=1;jettySize=auto;html=1;" edge="1" parent="1" source="JpRInRD_3Gb2IMDQWBs1-30" target="JpRInRD_3Gb2IMDQWBs1-28">
          <mxGeometry relative="1" as="geometry" />
        </mxCell>
        <mxCell id="JpRInRD_3Gb2IMDQWBs1-30" value="" style="rounded=0;whiteSpace=wrap;html=1;fontSize=18;" vertex="1" parent="1">
          <mxGeometry x="580" y="296.25" width="140" height="107.5" as="geometry" />
        </mxCell>
        <mxCell id="JpRInRD_3Gb2IMDQWBs1-39" value="绑定职位ID" style="rounded=0;whiteSpace=wrap;html=1;fontSize=19;fillColor=#d0cee2;strokeColor=#56517e;" vertex="1" parent="1">
          <mxGeometry x="590" y="303.75" width="120" height="40" as="geometry" />
        </mxCell>
        <mxCell id="JpRInRD_3Gb2IMDQWBs1-40" value="跟进状态" style="rounded=0;whiteSpace=wrap;html=1;fontSize=19;fillColor=#d0cee2;strokeColor=#56517e;" vertex="1" parent="1">
          <mxGeometry x="590" y="353.75" width="120" height="40" as="geometry" />
        </mxCell>
        <mxCell id="JpRInRD_3Gb2IMDQWBs1-42" value="call-list接口改造" style="text;html=1;strokeColor=none;fillColor=none;align=center;verticalAlign=middle;whiteSpace=wrap;rounded=0;fontSize=18;" vertex="1" parent="1">
          <mxGeometry x="-40" y="520" width="150" height="40" as="geometry" />
        </mxCell>
        <mxCell id="JpRInRD_3Gb2IMDQWBs1-66" style="edgeStyle=orthogonalEdgeStyle;rounded=0;orthogonalLoop=1;jettySize=auto;html=1;entryX=0;entryY=0.5;entryDx=0;entryDy=0;" edge="1" parent="1" source="JpRInRD_3Gb2IMDQWBs1-52" target="JpRInRD_3Gb2IMDQWBs1-65">
          <mxGeometry relative="1" as="geometry" />
        </mxCell>
        <mxCell id="JpRInRD_3Gb2IMDQWBs1-52" value="resumeApi" style="rounded=0;whiteSpace=wrap;html=1;dashed=1;dashPattern=8 8;strokeColor=#FF8000;strokeWidth=2;verticalAlign=top;align=left;fontSize=20;fontColor=#FF8000;fontStyle=0" vertex="1" parent="1">
          <mxGeometry x="140" y="621.88" width="180" height="130" as="geometry" />
        </mxCell>
        <mxCell id="JpRInRD_3Gb2IMDQWBs1-53" style="edgeStyle=orthogonalEdgeStyle;rounded=0;orthogonalLoop=1;jettySize=auto;html=1;entryX=0;entryY=0.5;entryDx=0;entryDy=0;" edge="1" parent="1" source="JpRInRD_3Gb2IMDQWBs1-54" target="JpRInRD_3Gb2IMDQWBs1-52">
          <mxGeometry relative="1" as="geometry" />
        </mxCell>
        <mxCell id="JpRInRD_3Gb2IMDQWBs1-54" value="Begin" style="rounded=0;whiteSpace=wrap;html=1;fontSize=20;fillColor=#d5e8d4;strokeColor=#82b366;" vertex="1" parent="1">
          <mxGeometry x="-40" y="666.88" width="120" height="40" as="geometry" />
        </mxCell>
        <mxCell id="JpRInRD_3Gb2IMDQWBs1-55" value="支持职位ID，跟进状态查询" style="whiteSpace=wrap;html=1;fontSize=15;rounded=0;fillColor=#f8cecc;strokeColor=#b85450;" vertex="1" parent="1">
          <mxGeometry x="160" y="671.88" width="140" height="70" as="geometry" />
        </mxCell>
        <mxCell id="JpRInRD_3Gb2IMDQWBs1-63" value="返回增加是否下载标识，年龄，职位" style="whiteSpace=wrap;html=1;fontSize=15;rounded=0;fillColor=#dae8fc;strokeColor=#6c8ebf;" vertex="1" parent="1">
          <mxGeometry x="390" y="638.75" width="140" height="70" as="geometry" />
        </mxCell>
        <mxCell id="JpRInRD_3Gb2IMDQWBs1-67" value="End" style="rounded=0;whiteSpace=wrap;html=1;fontSize=20;fillColor=#ffe6cc;strokeColor=#d79b00;" vertex="1" parent="1">
          <mxGeometry x="609" y="666.88" width="120" height="40" as="geometry" />
        </mxCell>
        <mxCell id="JpRInRD_3Gb2IMDQWBs1-69" style="edgeStyle=orthogonalEdgeStyle;rounded=0;orthogonalLoop=1;jettySize=auto;html=1;entryX=0;entryY=0.5;entryDx=0;entryDy=0;fontSize=19;" edge="1" parent="1" source="JpRInRD_3Gb2IMDQWBs1-70" target="JpRInRD_3Gb2IMDQWBs1-72">
          <mxGeometry relative="1" as="geometry" />
        </mxCell>
        <mxCell id="JpRInRD_3Gb2IMDQWBs1-70" value="" style="image;html=1;image=img/lib/clip_art/people/Suit_Man_128x128.png;fontSize=20;" vertex="1" parent="1">
          <mxGeometry x="-40" y="990" width="80" height="80" as="geometry" />
        </mxCell>
        <mxCell id="JpRInRD_3Gb2IMDQWBs1-71" style="edgeStyle=orthogonalEdgeStyle;rounded=0;orthogonalLoop=1;jettySize=auto;html=1;entryX=0;entryY=0.5;entryDx=0;entryDy=0;fontSize=19;" edge="1" parent="1" source="JpRInRD_3Gb2IMDQWBs1-72" target="JpRInRD_3Gb2IMDQWBs1-75">
          <mxGeometry relative="1" as="geometry" />
        </mxCell>
        <mxCell id="JpRInRD_3Gb2IMDQWBs1-72" value="邀约管理" style="rounded=0;whiteSpace=wrap;html=1;fontSize=20;fillColor=#f8cecc;strokeColor=#b85450;" vertex="1" parent="1">
          <mxGeometry x="90" y="1010" width="130" height="40" as="geometry" />
        </mxCell>
        <mxCell id="JpRInRD_3Gb2IMDQWBs1-73" style="edgeStyle=orthogonalEdgeStyle;rounded=0;orthogonalLoop=1;jettySize=auto;html=1;entryX=0;entryY=0.5;entryDx=0;entryDy=0;fontSize=19;" edge="1" parent="1" source="JpRInRD_3Gb2IMDQWBs1-75" target="JpRInRD_3Gb2IMDQWBs1-77">
          <mxGeometry relative="1" as="geometry" />
        </mxCell>
        <mxCell id="JpRInRD_3Gb2IMDQWBs1-74" style="edgeStyle=orthogonalEdgeStyle;rounded=0;orthogonalLoop=1;jettySize=auto;html=1;entryX=0;entryY=0.5;entryDx=0;entryDy=0;" edge="1" parent="1" source="JpRInRD_3Gb2IMDQWBs1-75" target="JpRInRD_3Gb2IMDQWBs1-79">
          <mxGeometry relative="1" as="geometry" />
        </mxCell>
        <mxCell id="JpRInRD_3Gb2IMDQWBs1-117" style="edgeStyle=orthogonalEdgeStyle;rounded=0;orthogonalLoop=1;jettySize=auto;html=1;entryX=0;entryY=0.5;entryDx=0;entryDy=0;" edge="1" parent="1" source="JpRInRD_3Gb2IMDQWBs1-75" target="JpRInRD_3Gb2IMDQWBs1-114">
          <mxGeometry relative="1" as="geometry" />
        </mxCell>
        <mxCell id="JpRInRD_3Gb2IMDQWBs1-75" value="简历线索" style="rounded=0;whiteSpace=wrap;html=1;fontSize=20;fillColor=#d5e8d4;strokeColor=#82b366;" vertex="1" parent="1">
          <mxGeometry x="260" y="1010" width="130" height="40" as="geometry" />
        </mxCell>
        <mxCell id="JpRInRD_3Gb2IMDQWBs1-76" style="edgeStyle=orthogonalEdgeStyle;rounded=0;orthogonalLoop=1;jettySize=auto;html=1;entryX=0;entryY=0.5;entryDx=0;entryDy=0;" edge="1" parent="1" source="JpRInRD_3Gb2IMDQWBs1-77" target="JpRInRD_3Gb2IMDQWBs1-80">
          <mxGeometry relative="1" as="geometry" />
        </mxCell>
        <mxCell id="JpRInRD_3Gb2IMDQWBs1-77" value="主投简历" style="rounded=0;whiteSpace=wrap;html=1;fontSize=20;fillColor=#dae8fc;strokeColor=#6c8ebf;" vertex="1" parent="1">
          <mxGeometry x="460" y="920" width="100" height="40" as="geometry" />
        </mxCell>
        <mxCell id="JpRInRD_3Gb2IMDQWBs1-78" style="edgeStyle=orthogonalEdgeStyle;rounded=0;orthogonalLoop=1;jettySize=auto;html=1;" edge="1" parent="1" source="JpRInRD_3Gb2IMDQWBs1-79" target="JpRInRD_3Gb2IMDQWBs1-81">
          <mxGeometry relative="1" as="geometry" />
        </mxCell>
        <mxCell id="JpRInRD_3Gb2IMDQWBs1-79" value="付费推荐" style="rounded=0;whiteSpace=wrap;html=1;fontSize=20;fillColor=#ffe6cc;strokeColor=#d79b00;" vertex="1" parent="1">
          <mxGeometry x="460" y="1010.0000000000001" width="100" height="40" as="geometry" />
        </mxCell>
        <mxCell id="JpRInRD_3Gb2IMDQWBs1-80" value="旧逻辑兼容新分页" style="rounded=0;whiteSpace=wrap;html=1;fontSize=20;fillColor=#dae8fc;strokeColor=#6c8ebf;" vertex="1" parent="1">
          <mxGeometry x="580" y="920" width="169" height="40" as="geometry" />
        </mxCell>
        <mxCell id="JpRInRD_3Gb2IMDQWBs1-81" value="旧逻辑兼容新分页+去除恒星推荐" style="rounded=0;whiteSpace=wrap;html=1;fontSize=20;fillColor=#ffe6cc;strokeColor=#d79b00;" vertex="1" parent="1">
          <mxGeometry x="580" y="1010.0000000000001" width="305" height="40" as="geometry" />
        </mxCell>
        <mxCell id="JpRInRD_3Gb2IMDQWBs1-82" value="MF- PC" style="shape=umlLifeline;perimeter=lifelinePerimeter;whiteSpace=wrap;html=1;container=0;collapsible=0;recursiveResize=0;outlineConnect=0;rounded=0;fontFamily=Helvetica;fontSize=16;strokeColor=#6c8ebf;fillColor=#DAE8FC;labelBackgroundColor=none;labelBorderColor=none;dashed=1;strokeWidth=2;" vertex="1" parent="1">
          <mxGeometry x="-70" y="1318" width="120" height="300" as="geometry" />
        </mxCell>
        <mxCell id="JpRInRD_3Gb2IMDQWBs1-83" value="MF-COMMONAPI" style="shape=umlLifeline;perimeter=lifelinePerimeter;whiteSpace=wrap;html=1;container=1;collapsible=0;recursiveResize=0;outlineConnect=0;rounded=0;fontFamily=Helvetica;fontSize=16;strokeColor=#b85450;fillColor=#f8cecc;labelBackgroundColor=none;labelBorderColor=none;dashed=1;strokeWidth=2;" vertex="1" parent="1">
          <mxGeometry x="105" y="1318" width="120" height="300" as="geometry" />
        </mxCell>
        <mxCell id="JpRInRD_3Gb2IMDQWBs1-84" value="" style="html=1;points=[];perimeter=orthogonalPerimeter;rounded=1;fontFamily=Helvetica;fontSize=19;strokeColor=#b85450;fillColor=#f8cecc;labelBackgroundColor=none;labelBorderColor=none;dashed=1;strokeWidth=2;" vertex="1" parent="JpRInRD_3Gb2IMDQWBs1-83">
          <mxGeometry x="55" y="90" width="10" height="130" as="geometry" />
        </mxCell>
        <mxCell id="JpRInRD_3Gb2IMDQWBs1-85" style="edgeStyle=orthogonalEdgeStyle;rounded=0;orthogonalLoop=1;jettySize=auto;html=1;entryX=0.9;entryY=0.892;entryDx=0;entryDy=0;entryPerimeter=0;strokeColor=#FF6666;strokeWidth=4;" edge="1" parent="JpRInRD_3Gb2IMDQWBs1-83" source="JpRInRD_3Gb2IMDQWBs1-84" target="JpRInRD_3Gb2IMDQWBs1-84">
          <mxGeometry relative="1" as="geometry">
            <Array as="points">
              <mxPoint x="85" y="150" />
              <mxPoint x="85" y="206" />
            </Array>
          </mxGeometry>
        </mxCell>
        <mxCell id="JpRInRD_3Gb2IMDQWBs1-86" value="组装数据" style="edgeLabel;html=1;align=center;verticalAlign=middle;resizable=0;points=[];fontColor=#3399FF;fontSize=18;" vertex="1" connectable="0" parent="JpRInRD_3Gb2IMDQWBs1-85">
          <mxGeometry x="-0.0103" relative="1" as="geometry">
            <mxPoint x="20" as="offset" />
          </mxGeometry>
        </mxCell>
        <mxCell id="JpRInRD_3Gb2IMDQWBs1-87" style="edgeStyle=orthogonalEdgeStyle;rounded=0;orthogonalLoop=1;jettySize=auto;html=1;entryX=0;entryY=0.085;entryDx=0;entryDy=0;entryPerimeter=0;fontSize=24;fillColor=#f8cecc;strokeColor=#FF6666;fontColor=#FFB366;strokeWidth=4;" edge="1" parent="1" source="JpRInRD_3Gb2IMDQWBs1-89" target="JpRInRD_3Gb2IMDQWBs1-84">
          <mxGeometry relative="1" as="geometry">
            <Array as="points">
              <mxPoint x="40" y="1419" />
              <mxPoint x="40" y="1419" />
            </Array>
          </mxGeometry>
        </mxCell>
        <mxCell id="JpRInRD_3Gb2IMDQWBs1-88" value="简历线索新接口" style="edgeLabel;html=1;align=center;verticalAlign=middle;resizable=0;points=[];fontSize=19;fontColor=#3399FF;" vertex="1" connectable="0" parent="JpRInRD_3Gb2IMDQWBs1-87">
          <mxGeometry x="-0.0531" y="1" relative="1" as="geometry">
            <mxPoint as="offset" />
          </mxGeometry>
        </mxCell>
        <mxCell id="JpRInRD_3Gb2IMDQWBs1-89" value="" style="html=1;points=[];perimeter=orthogonalPerimeter;rounded=1;fontFamily=Helvetica;fontSize=19;strokeColor=#6c8ebf;fillColor=#dae8fc;labelBackgroundColor=#D5E8D4;labelBorderColor=none;dashed=1;strokeWidth=2;" vertex="1" parent="1">
          <mxGeometry x="-15" y="1408" width="10" height="130" as="geometry" />
        </mxCell>
        <mxCell id="JpRInRD_3Gb2IMDQWBs1-90" value="" style="html=1;verticalAlign=bottom;startArrow=oval;endArrow=block;startSize=8;rounded=0;fontFamily=Helvetica;fontSize=19;fontColor=default;fillColor=#d5e8d4;strokeColor=#82b366;" edge="1" parent="1" target="JpRInRD_3Gb2IMDQWBs1-89">
          <mxGeometry x="-0.1111" y="10" relative="1" as="geometry">
            <mxPoint x="-60" y="1408" as="sourcePoint" />
            <mxPoint as="offset" />
          </mxGeometry>
        </mxCell>
        <mxCell id="JpRInRD_3Gb2IMDQWBs1-91" value="接口细节" style="text;html=1;align=center;verticalAlign=middle;resizable=0;points=[];autosize=1;strokeColor=none;fillColor=none;fontSize=19;" vertex="1" parent="1">
          <mxGeometry x="-80" y="1240" width="100" height="40" as="geometry" />
        </mxCell>
        <mxCell id="JpRInRD_3Gb2IMDQWBs1-92" value="MF-RESUMEAPI" style="shape=umlLifeline;perimeter=lifelinePerimeter;whiteSpace=wrap;html=1;container=1;collapsible=0;recursiveResize=0;outlineConnect=0;rounded=0;fontFamily=Helvetica;fontSize=16;strokeColor=#9673a6;fillColor=#e1d5e7;labelBackgroundColor=none;labelBorderColor=none;dashed=1;strokeWidth=2;" vertex="1" parent="1">
          <mxGeometry x="290" y="1318" width="120" height="300" as="geometry" />
        </mxCell>
        <mxCell id="JpRInRD_3Gb2IMDQWBs1-93" value="" style="html=1;points=[];perimeter=orthogonalPerimeter;rounded=1;fontFamily=Helvetica;fontSize=19;strokeColor=#9673a6;fillColor=#e1d5e7;labelBackgroundColor=none;labelBorderColor=none;dashed=1;strokeWidth=2;" vertex="1" parent="JpRInRD_3Gb2IMDQWBs1-92">
          <mxGeometry x="55" y="90" width="10" height="130" as="geometry" />
        </mxCell>
        <mxCell id="JpRInRD_3Gb2IMDQWBs1-94" style="edgeStyle=orthogonalEdgeStyle;rounded=0;orthogonalLoop=1;jettySize=auto;html=1;entryX=0;entryY=0.077;entryDx=0;entryDy=0;entryPerimeter=0;strokeColor=#FF6666;strokeWidth=3;" edge="1" parent="1" source="JpRInRD_3Gb2IMDQWBs1-84" target="JpRInRD_3Gb2IMDQWBs1-93">
          <mxGeometry relative="1" as="geometry">
            <Array as="points">
              <mxPoint x="220" y="1418" />
              <mxPoint x="220" y="1418" />
            </Array>
          </mxGeometry>
        </mxCell>
        <mxCell id="JpRInRD_3Gb2IMDQWBs1-95" value="获取主投/推荐&lt;br style=&quot;font-size: 14px;&quot;&gt;/自主添加" style="edgeLabel;html=1;align=center;verticalAlign=middle;resizable=0;points=[];fontColor=#3399FF;fontSize=14;fontStyle=0" vertex="1" connectable="0" parent="JpRInRD_3Gb2IMDQWBs1-94">
          <mxGeometry x="0.0057" y="-1" relative="1" as="geometry">
            <mxPoint as="offset" />
          </mxGeometry>
        </mxCell>
        <mxCell id="JpRInRD_3Gb2IMDQWBs1-96" style="edgeStyle=orthogonalEdgeStyle;rounded=0;orthogonalLoop=1;jettySize=auto;html=1;entryX=1.1;entryY=0.238;entryDx=0;entryDy=0;entryPerimeter=0;strokeColor=#FF6666;strokeWidth=4;" edge="1" parent="1" source="JpRInRD_3Gb2IMDQWBs1-93" target="JpRInRD_3Gb2IMDQWBs1-84">
          <mxGeometry relative="1" as="geometry">
            <Array as="points">
              <mxPoint x="310" y="1439" />
              <mxPoint x="310" y="1439" />
            </Array>
          </mxGeometry>
        </mxCell>
        <mxCell id="JpRInRD_3Gb2IMDQWBs1-97" style="edgeStyle=orthogonalEdgeStyle;rounded=0;orthogonalLoop=1;jettySize=auto;html=1;entryX=1;entryY=0.9;entryDx=0;entryDy=0;entryPerimeter=0;strokeColor=#FF6666;strokeWidth=3;" edge="1" parent="1" source="JpRInRD_3Gb2IMDQWBs1-84" target="JpRInRD_3Gb2IMDQWBs1-89">
          <mxGeometry relative="1" as="geometry">
            <Array as="points">
              <mxPoint x="120" y="1525" />
              <mxPoint x="120" y="1525" />
            </Array>
          </mxGeometry>
        </mxCell>
        <mxCell id="JpRInRD_3Gb2IMDQWBs1-98" value="返回新数据" style="edgeLabel;html=1;align=center;verticalAlign=middle;resizable=0;points=[];fontColor=#3399FF;fontSize=18;" vertex="1" connectable="0" parent="JpRInRD_3Gb2IMDQWBs1-97">
          <mxGeometry x="0.0061" y="3" relative="1" as="geometry">
            <mxPoint as="offset" />
          </mxGeometry>
        </mxCell>
        <mxCell id="JpRInRD_3Gb2IMDQWBs1-99" value="" style="edgeStyle=orthogonalEdgeStyle;rounded=0;orthogonalLoop=1;jettySize=auto;html=1;" edge="1" parent="1" source="JpRInRD_3Gb2IMDQWBs1-100" target="JpRInRD_3Gb2IMDQWBs1-104">
          <mxGeometry relative="1" as="geometry" />
        </mxCell>
        <mxCell id="JpRInRD_3Gb2IMDQWBs1-100" value="" style="ellipse;whiteSpace=wrap;html=1;aspect=fixed;fillColor=#fff2cc;strokeColor=#d6b656;" vertex="1" parent="1">
          <mxGeometry x="769" y="1240" width="40" height="40" as="geometry" />
        </mxCell>
        <mxCell id="JpRInRD_3Gb2IMDQWBs1-101" value="" style="edgeStyle=orthogonalEdgeStyle;rounded=0;orthogonalLoop=1;jettySize=auto;html=1;" edge="1" parent="1" source="JpRInRD_3Gb2IMDQWBs1-104" target="JpRInRD_3Gb2IMDQWBs1-106">
          <mxGeometry relative="1" as="geometry" />
        </mxCell>
        <mxCell id="JpRInRD_3Gb2IMDQWBs1-102" value="" style="edgeStyle=orthogonalEdgeStyle;rounded=0;orthogonalLoop=1;jettySize=auto;html=1;" edge="1" parent="1" source="JpRInRD_3Gb2IMDQWBs1-104" target="JpRInRD_3Gb2IMDQWBs1-106">
          <mxGeometry relative="1" as="geometry" />
        </mxCell>
        <mxCell id="JpRInRD_3Gb2IMDQWBs1-103" style="edgeStyle=orthogonalEdgeStyle;rounded=0;orthogonalLoop=1;jettySize=auto;html=1;entryX=0.5;entryY=0;entryDx=0;entryDy=0;" edge="1" parent="1" source="JpRInRD_3Gb2IMDQWBs1-104" target="JpRInRD_3Gb2IMDQWBs1-108">
          <mxGeometry relative="1" as="geometry" />
        </mxCell>
        <mxCell id="JpRInRD_3Gb2IMDQWBs1-121" style="edgeStyle=orthogonalEdgeStyle;rounded=0;orthogonalLoop=1;jettySize=auto;html=1;entryX=0.5;entryY=0;entryDx=0;entryDy=0;" edge="1" parent="1" source="JpRInRD_3Gb2IMDQWBs1-104" target="JpRInRD_3Gb2IMDQWBs1-119">
          <mxGeometry relative="1" as="geometry" />
        </mxCell>
        <mxCell id="JpRInRD_3Gb2IMDQWBs1-104" value="简历线索" style="whiteSpace=wrap;html=1;fontSize=18;fillColor=#d5e8d4;strokeColor=#82b366;" vertex="1" parent="1">
          <mxGeometry x="729" y="1330" width="120" height="36" as="geometry" />
        </mxCell>
        <mxCell id="JpRInRD_3Gb2IMDQWBs1-105" value="" style="edgeStyle=orthogonalEdgeStyle;rounded=0;orthogonalLoop=1;jettySize=auto;html=1;" edge="1" parent="1" source="JpRInRD_3Gb2IMDQWBs1-106" target="JpRInRD_3Gb2IMDQWBs1-110">
          <mxGeometry relative="1" as="geometry" />
        </mxCell>
        <mxCell id="JpRInRD_3Gb2IMDQWBs1-106" value="主投简历-10条" style="whiteSpace=wrap;html=1;fontSize=18;fillColor=#dae8fc;strokeColor=#6c8ebf;" vertex="1" parent="1">
          <mxGeometry x="540" y="1420" width="127" height="36" as="geometry" />
        </mxCell>
        <mxCell id="JpRInRD_3Gb2IMDQWBs1-107" value="" style="edgeStyle=orthogonalEdgeStyle;rounded=0;orthogonalLoop=1;jettySize=auto;html=1;" edge="1" parent="1" source="JpRInRD_3Gb2IMDQWBs1-108" target="JpRInRD_3Gb2IMDQWBs1-112">
          <mxGeometry relative="1" as="geometry" />
        </mxCell>
        <mxCell id="JpRInRD_3Gb2IMDQWBs1-108" value="付费推荐-10条" style="whiteSpace=wrap;html=1;fontSize=18;fillColor=#ffe6cc;strokeColor=#d79b00;" vertex="1" parent="1">
          <mxGeometry x="726" y="1420" width="127" height="36" as="geometry" />
        </mxCell>
        <mxCell id="JpRInRD_3Gb2IMDQWBs1-124" style="edgeStyle=orthogonalEdgeStyle;rounded=0;orthogonalLoop=1;jettySize=auto;html=1;entryX=0.5;entryY=0;entryDx=0;entryDy=0;" edge="1" parent="1" source="JpRInRD_3Gb2IMDQWBs1-110" target="JpRInRD_3Gb2IMDQWBs1-113">
          <mxGeometry relative="1" as="geometry">
            <Array as="points">
              <mxPoint x="604" y="1570" />
              <mxPoint x="789" y="1570" />
            </Array>
          </mxGeometry>
        </mxCell>
        <mxCell id="JpRInRD_3Gb2IMDQWBs1-110" value="没有就不展示" style="whiteSpace=wrap;html=1;fontSize=18;fillColor=#dae8fc;strokeColor=#6c8ebf;" vertex="1" parent="1">
          <mxGeometry x="540" y="1500" width="127" height="36" as="geometry" />
        </mxCell>
        <mxCell id="JpRInRD_3Gb2IMDQWBs1-111" style="edgeStyle=orthogonalEdgeStyle;rounded=0;orthogonalLoop=1;jettySize=auto;html=1;entryX=0.5;entryY=0;entryDx=0;entryDy=0;" edge="1" parent="1" source="JpRInRD_3Gb2IMDQWBs1-112" target="JpRInRD_3Gb2IMDQWBs1-113">
          <mxGeometry relative="1" as="geometry" />
        </mxCell>
        <mxCell id="JpRInRD_3Gb2IMDQWBs1-112" value="没有就不展示" style="whiteSpace=wrap;html=1;fontSize=18;fillColor=#ffe6cc;strokeColor=#d79b00;" vertex="1" parent="1">
          <mxGeometry x="726" y="1500" width="127" height="36" as="geometry" />
        </mxCell>
        <mxCell id="JpRInRD_3Gb2IMDQWBs1-113" value="简历线索（0-30条）" style="whiteSpace=wrap;html=1;fontSize=18;fillColor=#d5e8d4;strokeColor=#82b366;" vertex="1" parent="1">
          <mxGeometry x="698.75" y="1608" width="180.5" height="36" as="geometry" />
        </mxCell>
        <mxCell id="JpRInRD_3Gb2IMDQWBs1-116" value="" style="edgeStyle=orthogonalEdgeStyle;rounded=0;orthogonalLoop=1;jettySize=auto;html=1;" edge="1" parent="1" source="JpRInRD_3Gb2IMDQWBs1-114" target="JpRInRD_3Gb2IMDQWBs1-115">
          <mxGeometry relative="1" as="geometry" />
        </mxCell>
        <mxCell id="JpRInRD_3Gb2IMDQWBs1-114" value="自主添加" style="rounded=0;whiteSpace=wrap;html=1;fontSize=20;fillColor=#fad9d5;strokeColor=#ae4132;" vertex="1" parent="1">
          <mxGeometry x="460" y="1100" width="100" height="40" as="geometry" />
        </mxCell>
        <mxCell id="JpRInRD_3Gb2IMDQWBs1-115" value="旧逻辑兼容新分页+新增筛选项和展示参数" style="rounded=0;whiteSpace=wrap;html=1;fontSize=20;fillColor=#fad9d5;strokeColor=#ae4132;" vertex="1" parent="1">
          <mxGeometry x="580" y="1100" width="380" height="40" as="geometry" />
        </mxCell>
        <mxCell id="JpRInRD_3Gb2IMDQWBs1-122" style="edgeStyle=orthogonalEdgeStyle;rounded=0;orthogonalLoop=1;jettySize=auto;html=1;entryX=0.5;entryY=0;entryDx=0;entryDy=0;" edge="1" parent="1" source="JpRInRD_3Gb2IMDQWBs1-119" target="JpRInRD_3Gb2IMDQWBs1-120">
          <mxGeometry relative="1" as="geometry" />
        </mxCell>
        <mxCell id="JpRInRD_3Gb2IMDQWBs1-119" value="自主添加-10条" style="whiteSpace=wrap;html=1;fontSize=18;fillColor=#fad9d5;strokeColor=#ae4132;" vertex="1" parent="1">
          <mxGeometry x="914" y="1420" width="127" height="36" as="geometry" />
        </mxCell>
        <mxCell id="JpRInRD_3Gb2IMDQWBs1-125" style="edgeStyle=orthogonalEdgeStyle;rounded=0;orthogonalLoop=1;jettySize=auto;html=1;entryX=0.5;entryY=0;entryDx=0;entryDy=0;" edge="1" parent="1" source="JpRInRD_3Gb2IMDQWBs1-120" target="JpRInRD_3Gb2IMDQWBs1-113">
          <mxGeometry relative="1" as="geometry">
            <Array as="points">
              <mxPoint x="978" y="1570" />
              <mxPoint x="789" y="1570" />
            </Array>
          </mxGeometry>
        </mxCell>
        <mxCell id="JpRInRD_3Gb2IMDQWBs1-120" value="没有就不展示" style="whiteSpace=wrap;html=1;fontSize=18;fillColor=#fad9d5;strokeColor=#ae4132;" vertex="1" parent="1">
          <mxGeometry x="914" y="1500" width="127" height="36" as="geometry" />
        </mxCell>
        <mxCell id="JpRInRD_3Gb2IMDQWBs1-126" value="增加默认排序规则" style="whiteSpace=wrap;html=1;fontSize=15;rounded=0;fillColor=#dae8fc;strokeColor=#6c8ebf;" vertex="1" parent="1">
          <mxGeometry x="390" y="712.5" width="140" height="57.5" as="geometry" />
        </mxCell>
        <mxCell id="JpRInRD_3Gb2IMDQWBs1-127" style="edgeStyle=orthogonalEdgeStyle;rounded=0;orthogonalLoop=1;jettySize=auto;html=1;entryX=0;entryY=0.5;entryDx=0;entryDy=0;" edge="1" parent="1" source="JpRInRD_3Gb2IMDQWBs1-128" target="JpRInRD_3Gb2IMDQWBs1-138">
          <mxGeometry relative="1" as="geometry" />
        </mxCell>
        <mxCell id="JpRInRD_3Gb2IMDQWBs1-128" value="resumeApi" style="rounded=0;whiteSpace=wrap;html=1;dashed=1;dashPattern=8 8;strokeColor=#FF8000;strokeWidth=2;verticalAlign=top;align=left;fontSize=20;fontColor=#FF8000;perimeterSpacing=0;" vertex="1" parent="1">
          <mxGeometry x="320" y="1810" width="180" height="140" as="geometry" />
        </mxCell>
        <mxCell id="JpRInRD_3Gb2IMDQWBs1-129" style="edgeStyle=orthogonalEdgeStyle;rounded=0;orthogonalLoop=1;jettySize=auto;html=1;entryX=0;entryY=0.5;entryDx=0;entryDy=0;" edge="1" parent="1" source="JpRInRD_3Gb2IMDQWBs1-130" target="JpRInRD_3Gb2IMDQWBs1-128">
          <mxGeometry relative="1" as="geometry" />
        </mxCell>
        <mxCell id="JpRInRD_3Gb2IMDQWBs1-130" value="W-JOB" style="rounded=0;whiteSpace=wrap;html=1;dashed=1;dashPattern=8 8;strokeColor=#3399FF;strokeWidth=2;align=left;horizontal=1;verticalAlign=top;fontSize=21;fontColor=#3399FF;" vertex="1" parent="1">
          <mxGeometry x="90" y="1810" width="180" height="140" as="geometry" />
        </mxCell>
        <mxCell id="JpRInRD_3Gb2IMDQWBs1-131" style="edgeStyle=orthogonalEdgeStyle;rounded=0;orthogonalLoop=1;jettySize=auto;html=1;entryX=0;entryY=0.5;entryDx=0;entryDy=0;" edge="1" parent="1" source="JpRInRD_3Gb2IMDQWBs1-132" target="JpRInRD_3Gb2IMDQWBs1-130">
          <mxGeometry relative="1" as="geometry" />
        </mxCell>
        <mxCell id="JpRInRD_3Gb2IMDQWBs1-132" value="Begin" style="rounded=0;whiteSpace=wrap;html=1;fontSize=20;fillColor=#f8cecc;strokeColor=#b85450;" vertex="1" parent="1">
          <mxGeometry x="-80" y="1860" width="120" height="40" as="geometry" />
        </mxCell>
        <mxCell id="JpRInRD_3Gb2IMDQWBs1-133" value="获取3天前自主添加的数据" style="rounded=0;whiteSpace=wrap;html=1;fontSize=20;fillColor=#dae8fc;strokeColor=#6c8ebf;" vertex="1" parent="1">
          <mxGeometry x="110" y="1865" width="140" height="70" as="geometry" />
        </mxCell>
        <mxCell id="JpRInRD_3Gb2IMDQWBs1-137" value="更新数据为无效" style="rounded=0;whiteSpace=wrap;html=1;fontSize=20;fillColor=#ffe6cc;strokeColor=#d79b00;" vertex="1" parent="1">
          <mxGeometry x="340" y="1860" width="140" height="70" as="geometry" />
        </mxCell>
        <mxCell id="JpRInRD_3Gb2IMDQWBs1-138" value="End" style="rounded=0;whiteSpace=wrap;html=1;fontSize=20;fillColor=#fff2cc;strokeColor=#d6b656;" vertex="1" parent="1">
          <mxGeometry x="540" y="1860" width="120" height="40" as="geometry" />
        </mxCell>
        <mxCell id="JpRInRD_3Gb2IMDQWBs1-139" value="自主添加数据定时清除接" style="text;html=1;strokeColor=none;fillColor=none;align=center;verticalAlign=middle;whiteSpace=wrap;rounded=0;fontSize=18;" vertex="1" parent="1">
          <mxGeometry x="-80" y="1720" width="200" height="40" as="geometry" />
        </mxCell>
        <mxCell id="JpRInRD_3Gb2IMDQWBs1-142" value="简历线索接口变动" style="text;html=1;strokeColor=none;fillColor=none;align=center;verticalAlign=middle;whiteSpace=wrap;rounded=0;fontSize=18;" vertex="1" parent="1">
          <mxGeometry x="-40" y="840" width="170" height="40" as="geometry" />
        </mxCell>
        <mxCell id="JpRInRD_3Gb2IMDQWBs1-143" value="监听沟通记录的添加变更自主添加数据的跟进状态" style="text;html=1;strokeColor=none;fillColor=none;align=left;verticalAlign=middle;whiteSpace=wrap;rounded=0;fontSize=18;" vertex="1" parent="1">
          <mxGeometry x="-80" y="2030" width="210" height="50" as="geometry" />
        </mxCell>
        <mxCell id="JpRInRD_3Gb2IMDQWBs1-144" style="edgeStyle=orthogonalEdgeStyle;rounded=0;orthogonalLoop=1;jettySize=auto;html=1;entryX=0;entryY=0.5;entryDx=0;entryDy=0;" edge="1" parent="1" source="JpRInRD_3Gb2IMDQWBs1-145" target="JpRInRD_3Gb2IMDQWBs1-152">
          <mxGeometry relative="1" as="geometry" />
        </mxCell>
        <mxCell id="JpRInRD_3Gb2IMDQWBs1-145" value="resumeApi" style="rounded=0;whiteSpace=wrap;html=1;dashed=1;dashPattern=8 8;strokeColor=#FF8000;strokeWidth=2;verticalAlign=top;align=left;fontSize=20;fontColor=#FF8000;perimeterSpacing=0;" vertex="1" parent="1">
          <mxGeometry x="320" y="2130" width="180" height="140" as="geometry" />
        </mxCell>
        <mxCell id="JpRInRD_3Gb2IMDQWBs1-146" style="edgeStyle=orthogonalEdgeStyle;rounded=0;orthogonalLoop=1;jettySize=auto;html=1;entryX=0;entryY=0.5;entryDx=0;entryDy=0;" edge="1" parent="1" source="JpRInRD_3Gb2IMDQWBs1-147" target="JpRInRD_3Gb2IMDQWBs1-145">
          <mxGeometry relative="1" as="geometry" />
        </mxCell>
        <mxCell id="JpRInRD_3Gb2IMDQWBs1-147" value="Consumer" style="rounded=0;whiteSpace=wrap;html=1;dashed=1;dashPattern=8 8;strokeColor=#3399FF;strokeWidth=2;align=left;horizontal=1;verticalAlign=top;fontSize=21;fontColor=#3399FF;" vertex="1" parent="1">
          <mxGeometry x="90" y="2130" width="180" height="140" as="geometry" />
        </mxCell>
        <mxCell id="JpRInRD_3Gb2IMDQWBs1-148" style="edgeStyle=orthogonalEdgeStyle;rounded=0;orthogonalLoop=1;jettySize=auto;html=1;entryX=0;entryY=0.5;entryDx=0;entryDy=0;" edge="1" parent="1" source="JpRInRD_3Gb2IMDQWBs1-149" target="JpRInRD_3Gb2IMDQWBs1-147">
          <mxGeometry relative="1" as="geometry" />
        </mxCell>
        <mxCell id="JpRInRD_3Gb2IMDQWBs1-149" value="Begin" style="rounded=0;whiteSpace=wrap;html=1;fontSize=20;fillColor=#f8cecc;strokeColor=#b85450;" vertex="1" parent="1">
          <mxGeometry x="-80" y="2180" width="120" height="40" as="geometry" />
        </mxCell>
        <mxCell id="JpRInRD_3Gb2IMDQWBs1-150" value="监听沟通记录表的新增数据" style="rounded=0;whiteSpace=wrap;html=1;fontSize=20;fillColor=#dae8fc;strokeColor=#6c8ebf;" vertex="1" parent="1">
          <mxGeometry x="110" y="2185" width="140" height="70" as="geometry" />
        </mxCell>
        <mxCell id="JpRInRD_3Gb2IMDQWBs1-151" value="更新数据的跟进状态" style="rounded=0;whiteSpace=wrap;html=1;fontSize=20;fillColor=#ffe6cc;strokeColor=#d79b00;" vertex="1" parent="1">
          <mxGeometry x="340" y="2180" width="140" height="70" as="geometry" />
        </mxCell>
        <mxCell id="JpRInRD_3Gb2IMDQWBs1-152" value="End" style="rounded=0;whiteSpace=wrap;html=1;fontSize=20;fillColor=#fff2cc;strokeColor=#d6b656;" vertex="1" parent="1">
          <mxGeometry x="540" y="2180" width="120" height="40" as="geometry" />
        </mxCell>
      </root>
    </mxGraphModel>
  </diagram>
</mxfile>
